<?xml version="1.0" encoding="UTF-8"?><svg id="Layer_1" xmlns="http://www.w3.org/2000/svg" viewBox="0 0 165 22"><defs><style>.cls-1{fill:#fff;}</style></defs><path class="cls-1" d="m.48,20.54L3.14,3.59h4.29l3.58,9.25,3.54-9.25h4.47l2.7,16.95h-4.51l-1.33-9.73-3.85,9.73h-2.08l-3.81-9.78-1.19,9.78H.48ZM29.04,6.69c1.66,0,2.7.55,3.92,1.66v-1.39h4.07v13.58h-4.14v-1.33s-1.48,1.66-4.07,1.66c-3.78,0-6.37-2.7-6.37-7.06,0-3.78,2.81-7.12,6.59-7.12Zm-2.41,7.06c0,1.88,1.19,3.43,3.1,3.43s3.36-1.35,3.36-3.32-1.42-3.36-3.23-3.36c-1.97,0-3.23,1.46-3.23,3.25Zm16.67.53v6.26h-4.16V6.95h4v2.15c.33-1.02,1.59-2.41,3.23-2.41h.93v4.25s-.51-.27-1.44-.27c-1.59,0-2.57.97-2.57,3.61Zm6.08,6.26v-9.84h-1.35v-3.74h1.35v-3.36h4.14v3.36h2.19v3.76h-2.19v9.82h-4.14Zm13.77-13.85c1.66,0,2.7.55,3.92,1.66v-1.39h4.07v13.58h-4.14v-1.33s-1.48,1.66-4.07,1.66c-3.78,0-6.37-2.7-6.37-7.06,0-3.78,2.81-7.12,6.59-7.12Zm-2.41,7.06c0,1.88,1.19,3.43,3.1,3.43s3.36-1.35,3.36-3.32-1.42-3.36-3.23-3.36c-1.97,0-3.23,1.46-3.23,3.25Zm20.72-10.15h7.08c4.56,0,8.05,3.38,8.05,8.27s-3.3,8.67-8.01,8.67h-7.12V3.59Zm4.49,13.14h1.95c2.61,0,4.23-2.08,4.23-4.93,0-2.59-1.73-4.51-4.09-4.51h-2.08v9.45Zm18.92-10.04c3.92,0,6.68,2.59,6.68,7.43,0,.33.02.51,0,.82h-9.56c.35,1.61,1.64,2.39,3.19,2.39,1.35,0,2.23-.95,2.94-1.88,0,0,2.46,1.42,3.21,1.88-1.19,2.12-3.5,3.54-6.35,3.54-4.18,0-7.06-2.54-7.06-7.1,0-4.11,2.94-7.08,6.95-7.08Zm-2.72,5.38h5.15c-.49-1.31-1.19-1.92-2.48-1.92-1.39,0-2.17.66-2.68,1.92Zm11.68,8.47V3.59h4.11v16.95h-4.11Zm18.49-5.97v5.97h-4.42V3.59h6.75c3.01,0,5.8,1.7,5.8,5.31,0,2.32-1.02,3.89-2.92,4.62.44.64,4.54,7.01,4.54,7.01h-5.29s-3.08-5.2-3.56-5.97h-.89Zm-.09-3.34h1.42c1.22,0,2.28-.51,2.28-2.12,0-1.44-.77-2.12-2.23-2.12h-1.46v4.25Zm13.45-10.22c1.37,0,2.5,1.08,2.5,2.46s-1.13,2.52-2.54,2.52-2.43-1.08-2.43-2.48,1.11-2.5,2.48-2.5Zm-2.08,19.54V6.95h4.11v13.58h-4.11Zm13.59-13.85c4.11,0,7.32,2.96,7.32,7.06s-2.99,7.26-7.41,7.26c-4.16,0-7.34-3.41-7.34-7.19,0-4.07,3.25-7.12,7.43-7.12Zm-3.32,7.19c0,1.81,1.39,3.23,3.27,3.23,2.04,0,3.27-1.31,3.27-3.43,0-1.75-1.33-3.12-3.25-3.12s-3.3,1.46-3.3,3.32Z"/></svg>